<svg width="552" height="356" viewBox="0 0 552 356" fill="none" xmlns="http://www.w3.org/2000/svg">
<rect width="552" height="356" rx="20" fill="url(#paint0_linear)"/>
<path d="M233.996 88.3076C233.996 91.4814 232.849 93.9717 230.554 95.7783C228.259 97.585 225.093 98.4883 221.057 98.4883C217.02 98.4883 213.716 97.8617 211.145 96.6084V91.0908C212.772 91.8558 214.497 92.458 216.32 92.8975C218.16 93.3369 219.868 93.5566 221.447 93.5566C223.758 93.5566 225.459 93.1172 226.55 92.2383C227.657 91.3594 228.21 90.1794 228.21 88.6982C228.21 87.3636 227.705 86.2324 226.696 85.3047C225.687 84.377 223.604 83.2783 220.446 82.0088C217.191 80.6904 214.896 79.1849 213.562 77.4922C212.227 75.7995 211.56 73.765 211.56 71.3887C211.56 68.4102 212.618 66.0664 214.733 64.3574C216.849 62.6484 219.689 61.7939 223.254 61.7939C226.672 61.7939 230.074 62.5426 233.459 64.04L231.604 68.8008C228.43 67.4661 225.598 66.7988 223.107 66.7988C221.219 66.7988 219.787 67.2139 218.811 68.0439C217.834 68.8577 217.346 69.9401 217.346 71.291C217.346 72.2188 217.541 73.0163 217.932 73.6836C218.322 74.3346 218.965 74.9531 219.86 75.5391C220.756 76.125 222.367 76.8981 224.694 77.8584C227.315 78.9489 229.235 79.9661 230.456 80.9102C231.677 81.8542 232.572 82.9202 233.142 84.1084C233.711 85.2965 233.996 86.6963 233.996 88.3076ZM250.354 93.8496C251.753 93.8496 253.153 93.6299 254.553 93.1904V97.5117C253.918 97.7884 253.096 98.0163 252.087 98.1953C251.094 98.3906 250.061 98.4883 248.986 98.4883C243.55 98.4883 240.832 95.6237 240.832 89.8945V75.3438H237.146V72.8047L241.101 70.7051L243.054 64.9922H246.594V70.998H254.284V75.3438H246.594V89.7969C246.594 91.1803 246.936 92.2057 247.619 92.873C248.319 93.5241 249.23 93.8496 250.354 93.8496ZM276.867 98L275.72 94.2402H275.524C274.222 95.8841 272.912 97.0072 271.594 97.6094C270.275 98.1953 268.583 98.4883 266.516 98.4883C263.863 98.4883 261.787 97.7721 260.29 96.3398C258.809 94.9076 258.068 92.8812 258.068 90.2607C258.068 87.4775 259.102 85.3779 261.169 83.9619C263.236 82.5459 266.385 81.7728 270.617 81.6426L275.28 81.4961V80.0557C275.28 78.3304 274.873 77.0446 274.06 76.1982C273.262 75.3356 272.017 74.9043 270.324 74.9043C268.941 74.9043 267.614 75.1077 266.345 75.5146C265.075 75.9215 263.854 76.4017 262.683 76.9551L260.827 72.8535C262.292 72.0885 263.895 71.5107 265.637 71.1201C267.378 70.7132 269.022 70.5098 270.568 70.5098C274.003 70.5098 276.59 71.2585 278.332 72.7559C280.09 74.2533 280.969 76.6051 280.969 79.8115V98H276.867ZM268.322 94.0938C270.406 94.0938 272.074 93.516 273.327 92.3604C274.597 91.1885 275.231 89.5527 275.231 87.4531V85.1094L271.765 85.2559C269.063 85.3535 267.093 85.8092 265.856 86.623C264.636 87.4206 264.025 88.6494 264.025 90.3096C264.025 91.514 264.383 92.4499 265.1 93.1172C265.816 93.7682 266.89 94.0938 268.322 94.0938ZM294.519 83.7422L297.766 79.6895L305.92 70.998H312.536L301.672 82.5947L313.22 98H306.481L297.814 86.1592L294.665 88.7471V98H288.977V60.0117H294.665V78.542L294.372 83.7422H294.519ZM329.382 98.4883C325.183 98.4883 321.895 97.2676 319.519 94.8262C317.159 92.3685 315.979 88.9912 315.979 84.6943C315.979 80.2835 317.077 76.8167 319.274 74.2939C321.472 71.7712 324.491 70.5098 328.332 70.5098C331.896 70.5098 334.712 71.5921 336.779 73.7568C338.846 75.9215 339.88 78.9001 339.88 82.6924V85.793H321.887C321.968 88.4134 322.676 90.4316 324.011 91.8477C325.345 93.2474 327.225 93.9473 329.65 93.9473C331.245 93.9473 332.727 93.8008 334.094 93.5078C335.477 93.1986 336.958 92.694 338.537 91.9941V96.6572C337.137 97.3245 335.721 97.7965 334.289 98.0732C332.857 98.3499 331.221 98.4883 329.382 98.4883ZM328.332 74.8555C326.509 74.8555 325.044 75.4333 323.938 76.5889C322.847 77.7445 322.196 79.429 321.984 81.6426H334.24C334.208 79.4128 333.671 77.7282 332.629 76.5889C331.587 75.4333 330.155 74.8555 328.332 74.8555Z" fill="white"/>
<path d="M239.992 292H236.55V275.799H239.992V292ZM236.345 271.507C236.345 270.892 236.511 270.418 236.843 270.086C237.185 269.754 237.668 269.588 238.293 269.588C238.898 269.588 239.367 269.754 239.699 270.086C240.041 270.418 240.212 270.892 240.212 271.507C240.212 272.093 240.041 272.557 239.699 272.898C239.367 273.23 238.898 273.396 238.293 273.396C237.668 273.396 237.185 273.23 236.843 272.898C236.511 272.557 236.345 272.093 236.345 271.507ZM259.182 292H255.725V282.039C255.725 280.789 255.471 279.856 254.963 279.241C254.465 278.626 253.669 278.318 252.575 278.318C251.12 278.318 250.056 278.748 249.382 279.607C248.708 280.467 248.371 281.907 248.371 283.929V292H244.929V275.799H247.624L248.107 277.923H248.283C248.771 277.151 249.465 276.556 250.363 276.136C251.262 275.716 252.258 275.506 253.352 275.506C257.238 275.506 259.182 277.483 259.182 281.438V292ZM284.245 292H272.131V270.584H284.245V273.543H275.632V279.373H283.703V282.303H275.632V289.026H284.245V292ZM294.558 289.51C295.397 289.51 296.237 289.378 297.077 289.114V291.707C296.696 291.873 296.203 292.01 295.598 292.117C295.002 292.234 294.382 292.293 293.737 292.293C290.476 292.293 288.845 290.574 288.845 287.137V278.406H286.633V276.883L289.006 275.623L290.178 272.195H292.302V275.799H296.916V278.406H292.302V287.078C292.302 287.908 292.507 288.523 292.917 288.924C293.337 289.314 293.884 289.51 294.558 289.51ZM314.582 292H311.125V282.039C311.125 280.789 310.871 279.856 310.363 279.241C309.865 278.626 309.069 278.318 307.976 278.318C306.53 278.318 305.466 278.753 304.782 279.622C304.108 280.481 303.771 281.927 303.771 283.958V292H300.329V269.207H303.771V274.993C303.771 275.921 303.713 276.912 303.596 277.967H303.815C304.284 277.186 304.934 276.58 305.764 276.15C306.604 275.721 307.58 275.506 308.693 275.506C312.619 275.506 314.582 277.483 314.582 281.438V292Z" fill="#95959A"/>
<path d="M193.72 204.4C193.72 187.48 179.08 183.04 165.76 179.92V159.52C171.76 160.24 178 162.28 184.12 165.76L190.12 151C183.52 146.8 174.76 144.4 165.76 143.68V130.6H153.76V143.92C134.8 146.08 125.56 157 125.56 169.72C125.56 186.88 140.44 191.32 153.76 194.56V214.6C145.12 213.76 136.48 210.52 130.48 206.08L123.88 220.72C130.48 225.88 141.88 229.6 153.76 230.32V243.4H165.76V229.96C184.6 227.68 193.72 216.88 193.72 204.4ZM144.88 168.76C144.88 164.8 147.4 161.32 153.76 159.88V176.92C148.48 175.24 144.88 172.96 144.88 168.76ZM165.76 214.12V197.56C170.92 199.36 174.4 201.64 174.4 205.84C174.4 209.68 171.76 212.8 165.76 214.12ZM228.363 213.16L247.683 194.92C259.443 184 261.723 176.56 261.723 168.4C261.723 153.16 249.243 143.56 230.523 143.56C215.403 143.56 203.643 149.68 197.163 159.16L211.323 168.28C215.403 162.64 221.523 159.88 228.723 159.88C237.603 159.88 242.163 163.72 242.163 170.32C242.163 174.4 240.843 178.72 233.403 185.8L201.003 216.4V229H264.483V213.16H228.363ZM308.27 230.44C329.03 230.44 344.27 214.72 344.27 187C344.27 159.28 329.03 143.56 308.27 143.56C287.63 143.56 272.27 159.28 272.27 187C272.27 214.72 287.63 230.44 308.27 230.44ZM308.27 214C298.67 214 291.95 206.08 291.95 187C291.95 167.92 298.67 160 308.27 160C317.99 160 324.71 167.92 324.71 187C324.71 206.08 317.99 214 308.27 214ZM389.715 230.44C410.475 230.44 425.715 214.72 425.715 187C425.715 159.28 410.475 143.56 389.715 143.56C369.075 143.56 353.715 159.28 353.715 187C353.715 214.72 369.075 230.44 389.715 230.44ZM389.715 214C380.115 214 373.395 206.08 373.395 187C373.395 167.92 380.115 160 389.715 160C399.435 160 406.155 167.92 406.155 187C406.155 206.08 399.435 214 389.715 214Z" fill="#18B2CD"/>
<defs>
<linearGradient id="paint0_linear" x1="276" y1="0" x2="276" y2="356" gradientUnits="userSpaceOnUse">
<stop stop-color="#393A40"/>
<stop offset="1" stop-color="#17171D"/>
</linearGradient>
</defs>
</svg>
