<svg width="552" height="356" viewBox="0 0 552 356" fill="none" xmlns="http://www.w3.org/2000/svg">
<rect width="552" height="356" rx="20" fill="url(#paint0_linear)"/>
<path d="M245.275 98H225.085V62.3066H245.275V67.2383H230.92V76.9551H244.372V81.8379H230.92V93.0439H245.275V98ZM269.299 98L268.151 94.2402H267.956C266.654 95.8841 265.344 97.0072 264.025 97.6094C262.707 98.1953 261.014 98.4883 258.947 98.4883C256.294 98.4883 254.219 97.7721 252.722 96.3398C251.241 94.9076 250.5 92.8812 250.5 90.2607C250.5 87.4775 251.534 85.3779 253.601 83.9619C255.668 82.5459 258.817 81.7728 263.049 81.6426L267.712 81.4961V80.0557C267.712 78.3304 267.305 77.0446 266.491 76.1982C265.694 75.3356 264.449 74.9043 262.756 74.9043C261.372 74.9043 260.046 75.1077 258.776 75.5146C257.507 75.9215 256.286 76.4017 255.114 76.9551L253.259 72.8535C254.724 72.0885 256.327 71.5107 258.068 71.1201C259.81 70.7132 261.454 70.5098 263 70.5098C266.434 70.5098 269.022 71.2585 270.764 72.7559C272.521 74.2533 273.4 76.6051 273.4 79.8115V98H269.299ZM260.754 94.0938C262.837 94.0938 264.506 93.516 265.759 92.3604C267.028 91.1885 267.663 89.5527 267.663 87.4531V85.1094L264.196 85.2559C261.494 85.3535 259.525 85.8092 258.288 86.623C257.067 87.4206 256.457 88.6494 256.457 90.3096C256.457 91.514 256.815 92.4499 257.531 93.1172C258.247 93.7682 259.322 94.0938 260.754 94.0938ZM295.104 70.5098C296.26 70.5098 297.212 70.5911 297.961 70.7539L297.399 76.1006C296.586 75.9053 295.739 75.8076 294.86 75.8076C292.565 75.8076 290.702 76.5563 289.27 78.0537C287.854 79.5511 287.146 81.4961 287.146 83.8887V98H281.408V70.998H285.9L286.657 75.7588H286.95C287.845 74.1475 289.009 72.8698 290.441 71.9258C291.89 70.9818 293.444 70.5098 295.104 70.5098ZM326.745 98H320.983V81.3984C320.983 79.3151 320.56 77.7607 319.714 76.7354C318.884 75.71 317.557 75.1973 315.734 75.1973C313.309 75.1973 311.535 75.9134 310.412 77.3457C309.289 78.778 308.728 81.1787 308.728 84.5479V98H302.99V70.998H307.482L308.288 74.5381H308.581C309.395 73.2523 310.55 72.2594 312.048 71.5596C313.545 70.8597 315.205 70.5098 317.028 70.5098C323.506 70.5098 326.745 73.8057 326.745 80.3975V98Z" fill="white"/>
<path d="M239.992 292H236.55V275.799H239.992V292ZM236.345 271.507C236.345 270.892 236.511 270.418 236.843 270.086C237.185 269.754 237.668 269.588 238.293 269.588C238.898 269.588 239.367 269.754 239.699 270.086C240.041 270.418 240.212 270.892 240.212 271.507C240.212 272.093 240.041 272.557 239.699 272.898C239.367 273.23 238.898 273.396 238.293 273.396C237.668 273.396 237.185 273.23 236.843 272.898C236.511 272.557 236.345 272.093 236.345 271.507ZM259.182 292H255.725V282.039C255.725 280.789 255.471 279.856 254.963 279.241C254.465 278.626 253.669 278.318 252.575 278.318C251.12 278.318 250.056 278.748 249.382 279.607C248.708 280.467 248.371 281.907 248.371 283.929V292H244.929V275.799H247.624L248.107 277.923H248.283C248.771 277.151 249.465 276.556 250.363 276.136C251.262 275.716 252.258 275.506 253.352 275.506C257.238 275.506 259.182 277.483 259.182 281.438V292ZM284.245 292H272.131V270.584H284.245V273.543H275.632V279.373H283.703V282.303H275.632V289.026H284.245V292ZM294.558 289.51C295.397 289.51 296.237 289.378 297.077 289.114V291.707C296.696 291.873 296.203 292.01 295.598 292.117C295.002 292.234 294.382 292.293 293.737 292.293C290.476 292.293 288.845 290.574 288.845 287.137V278.406H286.633V276.883L289.006 275.623L290.178 272.195H292.302V275.799H296.916V278.406H292.302V287.078C292.302 287.908 292.507 288.523 292.917 288.924C293.337 289.314 293.884 289.51 294.558 289.51ZM314.582 292H311.125V282.039C311.125 280.789 310.871 279.856 310.363 279.241C309.865 278.626 309.069 278.318 307.976 278.318C306.53 278.318 305.466 278.753 304.782 279.622C304.108 280.481 303.771 281.927 303.771 283.958V292H300.329V269.207H303.771V274.993C303.771 275.921 303.713 276.912 303.596 277.967H303.815C304.284 277.186 304.934 276.58 305.764 276.15C306.604 275.721 307.58 275.506 308.693 275.506C312.619 275.506 314.582 277.483 314.582 281.438V292Z" fill="#95959A"/>
<path d="M187.04 204.4C187.04 187.48 172.4 183.04 159.08 179.92V159.52C165.08 160.24 171.32 162.28 177.44 165.76L183.44 151C176.84 146.8 168.08 144.4 159.08 143.68V130.6H147.08V143.92C128.12 146.08 118.88 157 118.88 169.72C118.88 186.88 133.76 191.32 147.08 194.56V214.6C138.44 213.76 129.8 210.52 123.8 206.08L117.2 220.72C123.8 225.88 135.2 229.6 147.08 230.32V243.4H159.08V229.96C177.92 227.68 187.04 216.88 187.04 204.4ZM138.2 168.76C138.2 164.8 140.72 161.32 147.08 159.88V176.92C141.8 175.24 138.2 172.96 138.2 168.76ZM159.08 214.12V197.56C164.24 199.36 167.72 201.64 167.72 205.84C167.72 209.68 165.08 212.8 159.08 214.12ZM273.135 195.52H259.455V179.8H241.095V195.52H218.535L255.255 145H234.855L195.255 198.28V211.36H240.495V229H259.455V211.36H273.135V195.52ZM314.95 230.44C335.71 230.44 350.95 214.72 350.95 187C350.95 159.28 335.71 143.56 314.95 143.56C294.31 143.56 278.95 159.28 278.95 187C278.95 214.72 294.31 230.44 314.95 230.44ZM314.95 214C305.35 214 298.63 206.08 298.63 187C298.63 167.92 305.35 160 314.95 160C324.67 160 331.39 167.92 331.39 187C331.39 206.08 324.67 214 314.95 214ZM396.395 230.44C417.155 230.44 432.395 214.72 432.395 187C432.395 159.28 417.155 143.56 396.395 143.56C375.755 143.56 360.395 159.28 360.395 187C360.395 214.72 375.755 230.44 396.395 230.44ZM396.395 214C386.795 214 380.075 206.08 380.075 187C380.075 167.92 386.795 160 396.395 160C406.115 160 412.835 167.92 412.835 187C412.835 206.08 406.115 214 396.395 214Z" fill="#18B2CD"/>
<defs>
<linearGradient id="paint0_linear" x1="276" y1="0" x2="276" y2="356" gradientUnits="userSpaceOnUse">
<stop stop-color="#393A40"/>
<stop offset="1" stop-color="#17171D"/>
</linearGradient>
</defs>
</svg>
