<svg width="165" height="165" viewBox="0 0 165 165" fill="none" xmlns="http://www.w3.org/2000/svg">
<circle cx="82.5" cy="82.5" r="82.5" fill="white" fill-opacity="0.2"/>
<path d="M97.0732 70.5137C97.0732 73.681 96.1504 76.3242 94.3047 78.4434C92.459 80.5397 89.8613 81.9525 86.5117 82.6816V82.9551C90.5221 83.4564 93.5299 84.7096 95.5352 86.7148C97.5404 88.6973 98.543 91.3405 98.543 94.6445C98.543 99.4525 96.8454 103.167 93.4502 105.787C90.055 108.385 85.2243 109.684 78.958 109.684C73.4209 109.684 68.7497 108.784 64.9443 106.983V99.8398C67.0635 100.888 69.3079 101.697 71.6777 102.267C74.0475 102.836 76.3262 103.121 78.5137 103.121C82.3874 103.121 85.2812 102.403 87.1953 100.968C89.1094 99.5322 90.0664 97.3105 90.0664 94.3027C90.0664 91.6367 89.0068 89.6771 86.8877 88.4238C84.7686 87.1706 81.4417 86.5439 76.9072 86.5439H72.5664V80.0156H76.9756C84.9508 80.0156 88.9385 77.2585 88.9385 71.7441C88.9385 69.6022 88.2435 67.9502 86.8535 66.7881C85.4635 65.626 83.4128 65.0449 80.7012 65.0449C78.8099 65.0449 76.987 65.3184 75.2324 65.8652C73.4779 66.3893 71.4043 67.4261 69.0117 68.9756L65.0811 63.3701C69.6611 59.9977 74.9818 58.3115 81.043 58.3115C86.0788 58.3115 90.0094 59.3939 92.835 61.5586C95.6605 63.7233 97.0732 66.7083 97.0732 70.5137Z" fill="white"/>
</svg>
