<svg width="165" height="165" viewBox="0 0 165 165" fill="none" xmlns="http://www.w3.org/2000/svg">
<circle cx="82.5" cy="82.5" r="82.5" fill="white" fill-opacity="0.2"/>
<path d="M98.9531 109H65.0811V102.916L77.9668 89.9619C81.7721 86.0654 84.29 83.3083 85.5205 81.6904C86.7738 80.0498 87.6852 78.5117 88.2549 77.0762C88.8245 75.6406 89.1094 74.1025 89.1094 72.4619C89.1094 70.2061 88.4258 68.4287 87.0586 67.1299C85.7142 65.8311 83.8457 65.1816 81.4531 65.1816C79.5391 65.1816 77.682 65.5348 75.8818 66.2412C74.1045 66.9476 72.0423 68.2236 69.6953 70.0693L65.3545 64.7715C68.1344 62.4245 70.8346 60.7611 73.4551 59.7812C76.0755 58.8014 78.8669 58.3115 81.8291 58.3115C86.4775 58.3115 90.2031 59.5306 93.0059 61.9688C95.8086 64.3841 97.21 67.6426 97.21 71.7441C97.21 74 96.7998 76.1419 95.9795 78.1699C95.182 80.1979 93.9401 82.2943 92.2539 84.459C90.5905 86.6009 87.8105 89.5062 83.9141 93.1748L75.2324 101.583V101.925H98.9531V109Z" fill="white"/>
</svg>
