<svg width="552" height="356" viewBox="0 0 552 356" fill="none" xmlns="http://www.w3.org/2000/svg">
<rect width="552" height="356" rx="20" fill="url(#paint0_linear)"/>
<path d="M208.142 62.3066H218.737C223.653 62.3066 227.201 63.0228 229.382 64.4551C231.579 65.8874 232.678 68.1497 232.678 71.2422C232.678 73.3255 232.141 75.0589 231.066 76.4424C229.992 77.8258 228.446 78.6966 226.428 79.0547V79.2988C228.934 79.7708 230.773 80.7067 231.945 82.1064C233.133 83.4899 233.728 85.3698 233.728 87.7461C233.728 90.9525 232.604 93.4671 230.358 95.29C228.129 97.0967 225.02 98 221.032 98H208.142V62.3066ZM213.977 77.0527H219.592C222.033 77.0527 223.815 76.6702 224.938 75.9053C226.062 75.124 226.623 73.8057 226.623 71.9502C226.623 70.2738 226.013 69.0612 224.792 68.3125C223.588 67.5638 221.667 67.1895 219.03 67.1895H213.977V77.0527ZM213.977 81.7891V93.0928H220.178C222.619 93.0928 224.458 92.6289 225.695 91.7012C226.949 90.7572 227.575 89.276 227.575 87.2578C227.575 85.4023 226.94 84.027 225.671 83.1318C224.401 82.2367 222.473 81.7891 219.885 81.7891H213.977ZM257.434 98L256.286 94.2402H256.091C254.789 95.8841 253.479 97.0072 252.16 97.6094C250.842 98.1953 249.149 98.4883 247.082 98.4883C244.429 98.4883 242.354 97.7721 240.856 96.3398C239.375 94.9076 238.635 92.8812 238.635 90.2607C238.635 87.4775 239.668 85.3779 241.735 83.9619C243.802 82.5459 246.952 81.7728 251.184 81.6426L255.847 81.4961V80.0557C255.847 78.3304 255.44 77.0446 254.626 76.1982C253.828 75.3356 252.583 74.9043 250.891 74.9043C249.507 74.9043 248.181 75.1077 246.911 75.5146C245.642 75.9215 244.421 76.4017 243.249 76.9551L241.394 72.8535C242.858 72.0885 244.462 71.5107 246.203 71.1201C247.945 70.7132 249.589 70.5098 251.135 70.5098C254.569 70.5098 257.157 71.2585 258.898 72.7559C260.656 74.2533 261.535 76.6051 261.535 79.8115V98H257.434ZM248.889 94.0938C250.972 94.0938 252.64 93.516 253.894 92.3604C255.163 91.1885 255.798 89.5527 255.798 87.4531V85.1094L252.331 85.2559C249.629 85.3535 247.66 85.8092 246.423 86.623C245.202 87.4206 244.592 88.6494 244.592 90.3096C244.592 91.514 244.95 92.4499 245.666 93.1172C246.382 93.7682 247.456 94.0938 248.889 94.0938ZM279.602 93.8496C281.001 93.8496 282.401 93.6299 283.801 93.1904V97.5117C283.166 97.7884 282.344 98.0163 281.335 98.1953C280.342 98.3906 279.309 98.4883 278.234 98.4883C272.798 98.4883 270.08 95.6237 270.08 89.8945V75.3438H266.394V72.8047L270.349 70.7051L272.302 64.9922H275.842V70.998H283.532V75.3438H275.842V89.7969C275.842 91.1803 276.184 92.2057 276.867 92.873C277.567 93.5241 278.479 93.8496 279.602 93.8496ZM299.279 93.8496C300.679 93.8496 302.079 93.6299 303.479 93.1904V97.5117C302.844 97.7884 302.022 98.0163 301.013 98.1953C300.02 98.3906 298.986 98.4883 297.912 98.4883C292.476 98.4883 289.758 95.6237 289.758 89.8945V75.3438H286.071V72.8047L290.026 70.7051L291.979 64.9922H295.52V70.998H303.21V75.3438H295.52V89.7969C295.52 91.1803 295.861 92.2057 296.545 92.873C297.245 93.5241 298.156 93.8496 299.279 93.8496ZM314.636 98H308.898V60.0117H314.636V98ZM334.655 98.4883C330.456 98.4883 327.168 97.2676 324.792 94.8262C322.432 92.3685 321.252 88.9912 321.252 84.6943C321.252 80.2835 322.351 76.8167 324.548 74.2939C326.745 71.7712 329.764 70.5098 333.605 70.5098C337.17 70.5098 339.986 71.5921 342.053 73.7568C344.12 75.9215 345.153 78.9001 345.153 82.6924V85.793H327.16C327.242 88.4134 327.95 90.4316 329.284 91.8477C330.619 93.2474 332.499 93.9473 334.924 93.9473C336.519 93.9473 338 93.8008 339.367 93.5078C340.751 93.1986 342.232 92.694 343.811 91.9941V96.6572C342.411 97.3245 340.995 97.7965 339.562 98.0732C338.13 98.3499 336.494 98.4883 334.655 98.4883ZM333.605 74.8555C331.783 74.8555 330.318 75.4333 329.211 76.5889C328.12 77.7445 327.469 79.429 327.258 81.6426H339.514C339.481 79.4128 338.944 77.7282 337.902 76.5889C336.861 75.4333 335.428 74.8555 333.605 74.8555Z" fill="white"/>
<path d="M224.084 281.263C224.084 284.749 223.21 287.459 221.462 289.393C219.724 291.326 217.258 292.293 214.064 292.293C210.832 292.293 208.347 291.336 206.608 289.422C204.88 287.498 204.016 284.769 204.016 281.233C204.016 277.698 204.885 274.983 206.623 273.089C208.371 271.194 210.861 270.247 214.094 270.247C217.277 270.247 219.738 271.209 221.477 273.133C223.215 275.057 224.084 277.767 224.084 281.263ZM207.736 281.263C207.736 283.899 208.269 285.901 209.333 287.269C210.397 288.626 211.975 289.305 214.064 289.305C216.145 289.305 217.712 288.631 218.767 287.283C219.831 285.936 220.363 283.929 220.363 281.263C220.363 278.636 219.836 276.644 218.781 275.286C217.736 273.929 216.174 273.25 214.094 273.25C211.994 273.25 210.407 273.929 209.333 275.286C208.269 276.644 207.736 278.636 207.736 281.263ZM236.535 292.293C234.484 292.293 232.893 291.556 231.76 290.081H231.555C231.691 291.448 231.76 292.278 231.76 292.571V299.207H228.317V275.799H231.101C231.179 276.102 231.34 276.824 231.584 277.967H231.76C232.834 276.326 234.445 275.506 236.594 275.506C238.615 275.506 240.188 276.238 241.311 277.703C242.443 279.168 243.01 281.224 243.01 283.87C243.01 286.517 242.434 288.582 241.281 290.066C240.139 291.551 238.557 292.293 236.535 292.293ZM235.7 278.318C234.333 278.318 233.332 278.719 232.697 279.52C232.072 280.32 231.76 281.6 231.76 283.357V283.87C231.76 285.843 232.072 287.273 232.697 288.162C233.322 289.041 234.343 289.48 235.759 289.48C236.95 289.48 237.868 288.992 238.513 288.016C239.157 287.039 239.479 285.647 239.479 283.841C239.479 282.024 239.157 280.652 238.513 279.725C237.878 278.787 236.94 278.318 235.7 278.318ZM255.227 292.293C253.176 292.293 251.584 291.556 250.451 290.081H250.246C250.383 291.448 250.451 292.278 250.451 292.571V299.207H247.009V275.799H249.792C249.87 276.102 250.031 276.824 250.275 277.967H250.451C251.525 276.326 253.137 275.506 255.285 275.506C257.307 275.506 258.879 276.238 260.002 277.703C261.135 279.168 261.701 281.224 261.701 283.87C261.701 286.517 261.125 288.582 259.973 290.066C258.83 291.551 257.248 292.293 255.227 292.293ZM254.392 278.318C253.024 278.318 252.023 278.719 251.389 279.52C250.764 280.32 250.451 281.6 250.451 283.357V283.87C250.451 285.843 250.764 287.273 251.389 288.162C252.014 289.041 253.034 289.48 254.45 289.48C255.642 289.48 256.56 288.992 257.204 288.016C257.849 287.039 258.171 285.647 258.171 283.841C258.171 282.024 257.849 280.652 257.204 279.725C256.569 278.787 255.632 278.318 254.392 278.318ZM280.07 283.87C280.07 286.517 279.392 288.582 278.034 290.066C276.677 291.551 274.787 292.293 272.365 292.293C270.852 292.293 269.514 291.951 268.352 291.268C267.189 290.584 266.296 289.603 265.671 288.323C265.046 287.044 264.733 285.56 264.733 283.87C264.733 281.243 265.407 279.192 266.755 277.718C268.103 276.243 270.002 275.506 272.453 275.506C274.797 275.506 276.652 276.263 278.02 277.776C279.387 279.28 280.07 281.312 280.07 283.87ZM268.278 283.87C268.278 287.61 269.66 289.48 272.424 289.48C275.158 289.48 276.525 287.61 276.525 283.87C276.525 280.169 275.148 278.318 272.395 278.318C270.949 278.318 269.899 278.797 269.245 279.754C268.601 280.711 268.278 282.083 268.278 283.87ZM298.293 292H294.836V282.039C294.836 280.789 294.582 279.856 294.074 279.241C293.576 278.626 292.78 278.318 291.687 278.318C290.231 278.318 289.167 278.748 288.493 279.607C287.819 280.467 287.482 281.907 287.482 283.929V292H284.04V275.799H286.735L287.219 277.923H287.395C287.883 277.151 288.576 276.556 289.475 276.136C290.373 275.716 291.369 275.506 292.463 275.506C296.35 275.506 298.293 277.483 298.293 281.438V292ZM310.158 292.293C307.639 292.293 305.666 291.561 304.24 290.096C302.824 288.621 302.116 286.595 302.116 284.017C302.116 281.37 302.775 279.29 304.094 277.776C305.412 276.263 307.224 275.506 309.528 275.506C311.667 275.506 313.356 276.155 314.597 277.454C315.837 278.753 316.457 280.54 316.457 282.815V284.676H305.661C305.71 286.248 306.135 287.459 306.936 288.309C307.736 289.148 308.864 289.568 310.319 289.568C311.276 289.568 312.165 289.48 312.985 289.305C313.815 289.119 314.704 288.816 315.651 288.396V291.194C314.812 291.595 313.962 291.878 313.103 292.044C312.243 292.21 311.262 292.293 310.158 292.293ZM309.528 278.113C308.435 278.113 307.556 278.46 306.892 279.153C306.237 279.847 305.847 280.857 305.72 282.186H313.073C313.054 280.848 312.731 279.837 312.106 279.153C311.481 278.46 310.622 278.113 309.528 278.113ZM334.621 292H331.164V282.039C331.164 280.789 330.91 279.856 330.402 279.241C329.904 278.626 329.108 278.318 328.015 278.318C326.56 278.318 325.495 278.748 324.821 279.607C324.147 280.467 323.811 281.907 323.811 283.929V292H320.368V275.799H323.063L323.547 277.923H323.723C324.211 277.151 324.904 276.556 325.803 276.136C326.701 275.716 327.697 275.506 328.791 275.506C332.678 275.506 334.621 277.483 334.621 281.438V292ZM345.446 289.51C346.286 289.51 347.126 289.378 347.966 289.114V291.707C347.585 291.873 347.092 292.01 346.486 292.117C345.891 292.234 345.271 292.293 344.626 292.293C341.364 292.293 339.733 290.574 339.733 287.137V278.406H337.521V276.883L339.895 275.623L341.066 272.195H343.19V275.799H347.805V278.406H343.19V287.078C343.19 287.908 343.396 288.523 343.806 288.924C344.226 289.314 344.772 289.51 345.446 289.51Z" fill="#95959A"/>
<path d="M334.128 125L303.992 126.586C303.992 126.586 260.011 184.754 240.482 205.822L224.689 190.029L219.931 207.476L229.326 216.871C217.472 227.984 212 231.267 212 231.267L215.172 243.955L227.861 247.128C227.861 247.128 231.144 241.655 242.257 229.802L251.652 239.197L269.099 234.439L253.305 218.646C274.373 199.116 332.541 155.135 332.541 155.135L334.128 125Z" fill="url(#paint1_linear)"/>
<path d="M215.172 125L216.758 155.135C216.758 155.135 274.926 199.116 295.994 218.646L280.201 234.439L297.648 239.197L307.043 229.802C318.156 241.656 321.439 247.128 321.439 247.128L334.128 243.955L337.3 231.267C337.3 231.267 331.827 227.983 319.973 216.871L329.369 207.475L324.611 190.029L308.818 205.822C289.288 184.754 245.307 126.586 245.307 126.586L215.172 125Z" fill="url(#paint2_linear)"/>
<defs>
<linearGradient id="paint0_linear" x1="276" y1="0" x2="276" y2="356" gradientUnits="userSpaceOnUse">
<stop stop-color="#393A40"/>
<stop offset="1" stop-color="#17171D"/>
</linearGradient>
<linearGradient id="paint1_linear" x1="274.65" y1="165.409" x2="274.65" y2="257.773" gradientUnits="userSpaceOnUse">
<stop stop-color="white"/>
<stop offset="1" stop-color="#0DB0CC"/>
</linearGradient>
<linearGradient id="paint2_linear" x1="274.649" y1="165.409" x2="274.649" y2="257.772" gradientUnits="userSpaceOnUse">
<stop stop-color="white"/>
<stop offset="1" stop-color="#0DB0CC"/>
</linearGradient>
</defs>
</svg>
