<svg width="22" height="22" viewBox="0 0 22 22" fill="none" xmlns="http://www.w3.org/2000/svg">
<path d="M21.156 0L15.9357 0.274753C15.9357 0.274753 8.31693 10.3511 4.93389 14.0007L2.19808 11.2649L1.37382 14.2871L3.00134 15.9147C0.94795 17.8397 0 18.4084 0 18.4084L0.549504 20.6064L2.74753 21.156C2.74753 21.156 3.3163 20.208 5.24129 18.1546L6.86887 19.7822L9.89115 18.9579L7.15527 16.2221C10.8048 12.839 20.8812 5.2203 20.8812 5.2203L21.156 0Z" fill="url(#paint0_linear)"/>
<path d="M0.549507 5.1725e-05L0.824259 5.22035C0.824259 5.22035 10.9006 12.8391 14.5502 16.2221L11.8144 18.9579L14.8367 19.7822L16.4642 18.1547C18.3892 20.2081 18.9579 21.156 18.9579 21.156L21.156 20.6065L21.7055 18.4085C21.7055 18.4085 20.7575 17.8397 18.7041 15.9147L20.3317 14.2871L19.5075 11.2649L16.7716 14.0007C13.3885 10.3512 5.76981 0.274805 5.76981 0.274805L0.549507 5.1725e-05Z" fill="url(#paint1_linear)"/>
<defs>
<linearGradient id="paint0_linear" x1="10.8527" y1="7" x2="10.8527" y2="23" gradientUnits="userSpaceOnUse">
<stop stop-color="white"/>
<stop offset="1" stop-color="#3CCF91"/>
</linearGradient>
<linearGradient id="paint1_linear" x1="10.8527" y1="7" x2="10.8527" y2="23" gradientUnits="userSpaceOnUse">
<stop stop-color="white"/>
<stop offset="1" stop-color="#3CCF91"/>
</linearGradient>
</defs>
</svg>
