<svg width="459" height="70" viewBox="0 0 459 70" fill="none" xmlns="http://www.w3.org/2000/svg">
<path d="M0.950852 58L8.21085 16.75H28.5389C31.7069 16.75 33.9949 17.3 35.4029 18.4C36.8549 19.5 37.5809 21.194 37.5809 23.482C37.5809 26.826 36.8329 29.576 35.3369 31.732C33.8849 33.888 32.1029 35.23 29.9909 35.758L29.9249 36.154C33.8849 36.902 35.8649 39.52 35.8649 44.008C35.8649 47.968 34.7869 51.29 32.6309 53.974C30.4749 56.658 27.4389 58 23.5229 58H0.950852ZM21.2789 41.566H16.3289L15.1409 48.298H20.0249C21.1249 48.298 21.9609 47.858 22.5329 46.978C23.1049 46.098 23.3909 44.976 23.3909 43.612C23.3909 42.248 22.6869 41.566 21.2789 41.566ZM23.1269 25.792H19.1669L18.0449 31.93H21.9389C23.9629 31.93 24.9749 30.5 24.9749 27.64C24.9749 26.408 24.3589 25.792 23.1269 25.792ZM48.4791 58H35.2791L52.6371 16.75H72.0411L74.9451 58H61.6791L61.4151 51.466H51.0531L48.4791 58ZM59.7651 29.422L55.1451 40.972H60.4251V29.422H59.7651ZM110.072 27.31H100.964L95.6175 58H83.0775L88.4235 27.31H79.3815L81.2955 16.75H111.986L110.072 27.31ZM143.072 27.31H133.964L128.618 58H116.078L121.424 27.31H112.382L114.296 16.75H144.986L143.072 27.31ZM168.086 58H143.006L150.266 16.75H162.806L157.394 47.44H169.934L168.086 58ZM198.893 42.424H186.353L185.495 47.44H200.873L199.025 58H171.107L178.367 16.75H205.955L202.523 27.31H188.993L188.069 32.854H200.609L198.893 42.424Z" fill="url(#paint0_linear)"/>
<path d="M301.598 42.424H289.058L288.2 47.44H303.578L301.73 58H273.812L281.072 16.75H308.66L305.228 27.31H291.698L290.774 32.854H303.314L301.598 42.424ZM341.876 27.31H332.768L327.422 58H314.882L320.228 27.31H311.186L313.1 16.75H343.79L341.876 27.31ZM363.788 58L366.296 43.414H356.858L354.35 58H341.81L349.07 16.75H361.61L359.036 31.336H368.474L371.048 16.75H383.588L376.328 58H363.788ZM412.522 42.424H399.982L399.124 47.44H414.502L412.654 58H384.736L391.996 16.75H419.584L416.152 27.31H402.622L401.698 32.854H414.238L412.522 42.424ZM453.922 58H440.128L437.092 45.724H434.386L432.274 58H419.734L426.994 16.75H446.794C454.318 16.75 458.08 20.116 458.08 26.848C458.08 29.62 457.662 32.26 456.826 34.768C455.286 39.52 452.866 42.688 449.566 44.272L453.922 58ZM437.62 27.31L436.168 35.56H439.072C440.568 35.56 441.69 35.406 442.438 35.098C443.23 34.746 443.758 33.8 444.022 32.26C444.33 30.676 444.484 29.708 444.484 29.356C444.484 28.476 444.132 27.926 443.428 27.706C442.768 27.442 441.668 27.31 440.128 27.31H437.62Z" fill="url(#paint1_linear)"/>
<path d="M222.73 39.112H217.222L215.862 47H209.402L213.142 25.75H226.402L224.6 31.19H218.616L218.14 34.046H223.648L222.73 39.112ZM233.839 32.856L232.275 41.696H234.961C235.845 41.696 236.502 41.594 236.933 41.39C237.363 41.1633 237.647 40.6647 237.783 39.894L239.347 31.054H236.627C235.765 31.054 235.119 31.1673 234.689 31.394C234.258 31.598 233.975 32.0853 233.839 32.856ZM237.749 25.24C240.627 25.24 242.679 25.8067 243.903 26.94C245.127 28.0507 245.739 29.7733 245.739 32.108C245.739 34.4427 245.365 36.8907 244.617 39.452C243.891 41.9907 242.724 43.974 241.115 45.402C239.528 46.8073 237.193 47.51 234.111 47.51C231.051 47.51 228.909 46.9547 227.685 45.844C226.461 44.7107 225.849 42.9767 225.849 40.642C225.849 39.5313 226.007 38.0693 226.325 36.256C226.642 34.42 227.061 32.8447 227.583 31.53C228.104 30.1927 228.807 29.0367 229.691 28.062C231.391 26.1807 234.077 25.24 237.749 25.24ZM264.401 47H257.295L255.731 40.676H254.337L253.249 47H246.789L250.529 25.75H260.729C264.605 25.75 266.543 27.484 266.543 30.952C266.543 32.38 266.327 33.74 265.897 35.032C265.103 37.48 263.857 39.112 262.157 39.928L264.401 47ZM256.003 31.19L255.255 35.44H256.751C257.521 35.44 258.099 35.3607 258.485 35.202C258.893 35.0207 259.165 34.5333 259.301 33.74C259.459 32.924 259.539 32.4253 259.539 32.244C259.539 31.7907 259.357 31.5073 258.995 31.394C258.655 31.258 258.088 31.19 257.295 31.19H256.003Z" fill="url(#paint2_linear)"/>
<defs>
<linearGradient id="paint0_linear" x1="103" y1="21.6176" x2="103" y2="70" gradientUnits="userSpaceOnUse">
<stop stop-color="white"/>
<stop offset="1" stop-color="#92B7FF"/>
</linearGradient>
<linearGradient id="paint1_linear" x1="366" y1="21.6176" x2="366" y2="70" gradientUnits="userSpaceOnUse">
<stop stop-color="white"/>
<stop offset="1" stop-color="#92B7FF"/>
</linearGradient>
<linearGradient id="paint2_linear" x1="238" y1="28.1176" x2="238" y2="53" gradientUnits="userSpaceOnUse">
<stop stop-color="white"/>
<stop offset="1" stop-color="#92B7FF"/>
</linearGradient>
</defs>
</svg>
